<svg width="193" height="79" viewBox="0 0 193 79" fill="none" xmlns="http://www.w3.org/2000/svg">
<path fill-rule="evenodd" clip-rule="evenodd" d="M81.5111 14.9437H78.5464C78.0174 12.0681 76.641 9.31775 74.4172 7.09392C68.5813 1.25804 59.1195 1.25804 53.2836 7.09392L51.3208 9.05674C45.7623 3.33411 38.0972 0 29.8874 0C13.3811 0 0 13.3811 0 29.8874C0 40.9062 5.96284 50.5323 14.8377 55.7149L8.60744 65.0603C7.93222 66.0732 8.01304 67.4114 8.80522 68.3357L16.9563 77.8453C17.4725 78.4475 18.2261 78.7941 19.0193 78.7941H24.4533C25.9539 78.7941 27.1704 77.5777 27.1704 76.0771C27.1704 74.5765 25.9539 73.36 24.4533 73.36H20.2689L14.2706 66.362L19.8205 58.0371C22.966 59.1621 26.3552 59.7748 29.8874 59.7748C31.2959 59.7748 32.6896 59.677 34.0605 59.4852L30.3437 65.0603C29.6685 66.0732 29.7493 67.4114 30.5415 68.3357L38.6926 77.8453C39.2088 78.4475 39.9624 78.7941 40.7556 78.7941H46.1897C47.6902 78.7941 48.9067 77.5777 48.9067 76.0771C48.9067 74.5765 47.6902 73.36 46.1897 73.36H42.0052L36.0069 66.362L42.1461 57.1532C44.7329 55.9889 47.151 54.4549 49.3294 52.5876C50.4167 51.6555 71.7429 30.9019 74.4172 28.2276C76.641 26.0038 78.0174 23.2534 78.5464 20.3778H81.5111C84.4683 20.3778 86.4955 21.0535 87.741 22.299C88.8021 23.3601 90.5224 23.3601 91.5835 22.299C92.6446 21.2379 92.6446 19.5177 91.5835 18.4566C89.2063 16.0794 85.7994 14.9437 81.5111 14.9437ZM67.926 14.9437C67.926 16.4443 66.7095 17.6607 65.2089 17.6607C63.7083 17.6607 62.4919 16.4443 62.4919 14.9437C62.4919 13.4431 63.7083 12.2267 65.2089 12.2267C66.7095 12.2267 67.926 13.4431 67.926 14.9437Z" fill="#F7931A"/>
<path d="M44.1969 25.3808C44.8354 21.0232 41.5856 18.6807 37.1418 17.118L38.5833 11.2151L35.0638 10.3196L33.6604 16.067C32.7352 15.8316 31.7849 15.6095 30.8406 15.3895L32.254 9.60429L28.7365 8.70883L27.294 14.6097C26.5282 14.4316 25.7763 14.2556 25.0466 14.0704L25.0506 14.0519L20.1969 12.8146L19.2606 16.6523C19.2606 16.6523 21.8719 17.2633 21.8168 17.3012C23.2422 17.6645 23.4998 18.6275 23.4567 19.3909L21.8148 26.1156C21.8148 26.1156 21.8148 26.1156 21.8088 26.1411L19.5072 35.5614C19.3328 36.0035 18.8907 36.6666 17.8943 36.4149C17.9294 36.4671 15.3361 35.763 15.3361 35.763L13.5889 39.876L18.1689 41.0416C19.021 41.2596 19.856 41.4878 20.678 41.7027L19.2215 47.6731L22.737 48.5686L24.1795 42.6616C25.1398 42.9277 26.0721 43.1733 26.9843 43.4046L25.5468 49.284L29.0663 50.1794L30.5228 44.2203C36.5243 45.3797 41.0373 44.912 42.9369 39.3704C44.4676 34.9085 42.8607 32.3347 39.703 30.6563C42.0026 30.115 43.7348 28.5707 44.1969 25.3808ZM36.1554 36.8928C35.0678 41.3548 27.709 38.9426 25.3232 38.3378L27.2559 30.4281C29.6417 31.036 37.2922 32.2395 36.1554 36.8928ZM37.2441 25.3163C36.2517 29.375 30.1269 27.3129 28.1401 26.8074L29.8923 19.6335C31.8791 20.139 38.2776 21.0826 37.2441 25.3163Z" fill="#FAFAFA"/>
<path d="M110.386 0.646849V21.121H106.532V0.646849H110.386ZM122.632 0.646849L114.449 10.6308L109.769 15.6509L109.083 11.8964L112.333 7.66376L117.91 0.646849H122.632ZM118.344 21.121L111.997 11.5308L114.757 9.02777L122.926 21.121H118.344Z" fill="#F7931A"/>
<path d="M128.363 5.90602V21.121H124.65V5.90602H128.363ZM124.398 1.92649C124.398 1.37338 124.584 0.914026 124.958 0.548416C125.341 0.182805 125.855 0 126.499 0C127.144 0 127.653 0.182805 128.027 0.548416C128.41 0.914026 128.601 1.37338 128.601 1.92649C128.601 2.47021 128.41 2.92488 128.027 3.29049C127.653 3.65611 127.144 3.83891 126.499 3.83891C125.855 3.83891 125.341 3.65611 124.958 3.29049C124.584 2.92488 124.398 2.47021 124.398 1.92649Z" fill="#F7931A"/>
<path d="M136.112 17.4649L139.432 5.90602H141.786L141.086 9.89961L137.737 21.121H135.705L136.112 17.4649ZM134.276 5.90602L136.77 17.4931L136.994 21.121H134.654L130.675 5.90602H134.276ZM144.869 17.3243L147.307 5.90602H150.894L146.943 21.121H144.603L144.869 17.3243ZM142.151 5.90602L145.444 17.3524L145.878 21.121H143.846L140.469 9.89961L139.783 5.90602H142.151Z" fill="#F7931A"/>
<path d="M157.003 5.90602V21.121H153.29V5.90602H157.003ZM153.038 1.92649C153.038 1.37338 153.225 0.914026 153.598 0.548416C153.981 0.182805 154.495 0 155.14 0C155.784 0 156.293 0.182805 156.667 0.548416C157.05 0.914026 157.242 1.37338 157.242 1.92649C157.242 2.47021 157.05 2.92488 156.667 3.29049C156.293 3.65611 155.784 3.83891 155.14 3.83891C154.495 3.83891 153.981 3.65611 153.598 3.29049C153.225 2.92488 153.038 2.47021 153.038 1.92649Z" fill="#F7931A"/>
<path d="M114.351 40.7937H109.139L109.111 38.0657H113.58C114.346 38.0657 114.986 37.9579 115.5 37.7423C116.014 37.5266 116.402 37.2126 116.663 36.8001C116.934 36.3876 117.069 35.8861 117.069 35.2955C117.069 34.6393 116.943 34.1049 116.691 33.6924C116.448 33.2799 116.065 32.9799 115.542 32.7925C115.019 32.5956 114.356 32.4972 113.552 32.4972H110.386V49.9199H106.532V29.4457H113.552C114.711 29.4457 115.743 29.5582 116.649 29.7832C117.565 29.9988 118.34 30.3363 118.975 30.7957C119.61 31.255 120.091 31.8316 120.418 32.5253C120.755 33.219 120.923 34.044 120.923 35.0002C120.923 35.8439 120.727 36.622 120.334 37.3345C119.951 38.0376 119.358 38.6094 118.555 39.05C117.761 39.4906 116.752 39.7437 115.528 39.8094L114.351 40.7937ZM114.183 49.9199H108.004L109.615 46.8825H114.183C114.949 46.8825 115.579 46.756 116.075 46.5028C116.579 46.2497 116.953 45.9029 117.196 45.4623C117.448 45.0123 117.574 44.4967 117.574 43.9155C117.574 43.278 117.462 42.7249 117.238 42.2561C117.023 41.7874 116.677 41.4265 116.201 41.1734C115.734 40.9203 115.117 40.7937 114.351 40.7937H110.344L110.372 38.0657H115.472L116.355 39.1203C117.532 39.1297 118.489 39.3641 119.227 39.8234C119.975 40.2828 120.526 40.8734 120.881 41.5952C121.236 42.3171 121.413 43.0952 121.413 43.9295C121.413 45.242 121.128 46.3435 120.558 47.2341C119.998 48.1247 119.176 48.7949 118.092 49.2449C117.018 49.6949 115.715 49.9199 114.183 49.9199Z" fill="#F7931A"/>
<path d="M128.391 34.7049V49.9199H124.678V34.7049H128.391ZM124.426 30.7253C124.426 30.1722 124.612 29.7129 124.986 29.3473C125.369 28.9817 125.883 28.7989 126.527 28.7989C127.172 28.7989 127.681 28.9817 128.055 29.3473C128.438 29.7129 128.629 30.1722 128.629 30.7253C128.629 31.2691 128.438 31.7237 128.055 32.0894C127.681 32.455 127.172 32.6378 126.527 32.6378C125.883 32.6378 125.369 32.455 124.986 32.0894C124.612 31.7237 124.426 31.2691 124.426 30.7253Z" fill="#F7931A"/>
<path d="M139.096 34.7049V37.3766H130.409V34.7049H139.096ZM132.735 30.9644H136.448V45.5326C136.448 45.9826 136.509 46.3294 136.63 46.5732C136.751 46.8169 136.934 46.981 137.177 47.0653C137.419 47.1497 137.709 47.1919 138.045 47.1919C138.288 47.1919 138.512 47.1778 138.718 47.1497C138.923 47.1216 139.096 47.0935 139.236 47.0653L139.25 49.8496C138.942 49.9527 138.592 50.0371 138.199 50.1027C137.816 50.1683 137.382 50.2011 136.896 50.2011C136.065 50.2011 135.336 50.0605 134.71 49.7793C134.085 49.4887 133.599 49.0246 133.253 48.3871C132.908 47.7403 132.735 46.8872 132.735 45.8279V30.9644Z" fill="#F7931A"/>
<path d="M147.784 47.2763C148.307 47.2763 148.774 47.1731 149.185 46.9669C149.596 46.7607 149.923 46.47 150.166 46.0951C150.418 45.7201 150.553 45.2841 150.572 44.7873H154.061C154.042 45.8185 153.753 46.7419 153.192 47.5575C152.632 48.3731 151.884 49.0199 150.95 49.498C150.025 49.9668 148.989 50.2011 147.84 50.2011C146.672 50.2011 145.654 50.0043 144.785 49.6105C143.916 49.2168 143.192 48.6684 142.613 47.9653C142.043 47.2622 141.614 46.4466 141.324 45.5185C141.044 44.5904 140.904 43.5967 140.904 42.5374V42.0874C140.904 41.0281 141.044 40.0344 141.324 39.1063C141.614 38.1782 142.043 37.3626 142.613 36.6595C143.192 35.9564 143.916 35.408 144.785 35.0142C145.654 34.6205 146.667 34.4236 147.826 34.4236C149.049 34.4236 150.124 34.6627 151.048 35.1408C151.982 35.6189 152.711 36.2939 153.234 37.1657C153.767 38.0376 154.042 39.0641 154.061 40.2453H150.572C150.553 39.7016 150.432 39.2141 150.208 38.7828C149.983 38.3516 149.666 38.0047 149.255 37.7423C148.844 37.4798 148.344 37.3485 147.756 37.3485C147.13 37.3485 146.607 37.4798 146.186 37.7423C145.775 38.0047 145.453 38.3657 145.219 38.825C144.995 39.275 144.836 39.7812 144.743 40.3437C144.659 40.8968 144.617 41.478 144.617 42.0874V42.5374C144.617 43.1561 144.659 43.7467 144.743 44.3092C144.836 44.8717 144.995 45.3779 145.219 45.8279C145.453 46.2685 145.775 46.62 146.186 46.8825C146.607 47.145 147.139 47.2763 147.784 47.2763Z" fill="#F7931A"/>
<path d="M155.868 42.4671V42.1718C155.868 41.0562 156.027 40.0297 156.345 39.0922C156.662 38.1454 157.125 37.3251 157.732 36.6314C158.339 35.9376 159.082 35.3986 159.96 35.0142C160.838 34.6205 161.837 34.4236 162.958 34.4236C164.098 34.4236 165.107 34.6205 165.985 35.0142C166.872 35.3986 167.62 35.9376 168.227 36.6314C168.834 37.3251 169.297 38.1454 169.614 39.0922C169.932 40.0297 170.091 41.0562 170.091 42.1718V42.4671C170.091 43.5733 169.932 44.5998 169.614 45.5466C169.297 46.4841 168.834 47.3044 168.227 48.0075C167.62 48.7012 166.877 49.2402 165.999 49.6246C165.121 50.009 164.117 50.2011 162.986 50.2011C161.866 50.2011 160.861 50.009 159.974 49.6246C159.086 49.2402 158.339 48.7012 157.732 48.0075C157.125 47.3044 156.662 46.4841 156.345 45.5466C156.027 44.5998 155.868 43.5733 155.868 42.4671ZM159.568 42.1718V42.4671C159.568 43.1327 159.633 43.7561 159.764 44.3373C159.895 44.9185 160.095 45.4295 160.366 45.8701C160.637 46.3107 160.987 46.6575 161.417 46.9106C161.856 47.1544 162.379 47.2763 162.986 47.2763C163.584 47.2763 164.098 47.1544 164.528 46.9106C164.957 46.6575 165.308 46.3107 165.579 45.8701C165.859 45.4295 166.064 44.9185 166.195 44.3373C166.326 43.7561 166.391 43.1327 166.391 42.4671V42.1718C166.391 41.5155 166.326 40.9015 166.195 40.3297C166.064 39.7484 165.859 39.2375 165.579 38.7969C165.308 38.3469 164.953 37.9954 164.514 37.7423C164.084 37.4798 163.566 37.3485 162.958 37.3485C162.361 37.3485 161.847 37.4798 161.417 37.7423C160.987 37.9954 160.637 38.3469 160.366 38.7969C160.095 39.2375 159.895 39.7484 159.764 40.3297C159.633 40.9015 159.568 41.5155 159.568 42.1718Z" fill="#F7931A"/>
<path d="M176.704 34.7049V49.9199H172.991V34.7049H176.704ZM172.739 30.7253C172.739 30.1722 172.926 29.7129 173.299 29.3473C173.682 28.9817 174.196 28.7989 174.841 28.7989C175.485 28.7989 175.994 28.9817 176.368 29.3473C176.751 29.7129 176.942 30.1722 176.942 30.7253C176.942 31.2691 176.751 31.7237 176.368 32.0894C175.994 32.455 175.485 32.6378 174.841 32.6378C174.196 32.6378 173.682 32.455 173.299 32.0894C172.926 31.7237 172.739 31.2691 172.739 30.7253Z" fill="#F7931A"/>
<path d="M183.864 37.9532V49.9199H180.165V34.7049H183.64L183.864 37.9532ZM183.276 41.764H182.183C182.192 40.6578 182.342 39.6547 182.631 38.7547C182.921 37.8548 183.327 37.0813 183.85 36.4345C184.383 35.7876 185.013 35.2908 185.742 34.9439C186.47 34.5971 187.283 34.4236 188.18 34.4236C188.909 34.4236 189.567 34.5268 190.156 34.733C190.744 34.9392 191.249 35.2674 191.669 35.7173C192.099 36.1673 192.426 36.7579 192.65 37.4891C192.883 38.211 193 39.1016 193 40.1609V49.9199H189.273V40.1328C189.273 39.4391 189.17 38.8907 188.965 38.4875C188.768 38.0844 188.479 37.7985 188.096 37.6298C187.722 37.461 187.26 37.3766 186.709 37.3766C186.139 37.3766 185.639 37.4938 185.209 37.7282C184.789 37.9532 184.434 38.2672 184.144 38.6703C183.864 39.0735 183.649 39.5375 183.5 40.0625C183.35 40.5875 183.276 41.1546 183.276 41.764Z" fill="#F7931A"/>
<path d="M122.45 68.1301V76.1032C122.151 76.4876 121.679 76.9048 121.035 77.3548C120.4 77.8047 119.568 78.1938 118.541 78.5219C117.513 78.8406 116.252 79 114.757 79C113.459 79 112.273 78.7844 111.198 78.3532C110.124 77.9125 109.199 77.2704 108.424 76.4267C107.649 75.5829 107.051 74.5517 106.631 73.333C106.21 72.1143 106 70.7222 106 69.1566V67.8067C106 66.2411 106.196 64.849 106.589 63.6303C106.99 62.4116 107.56 61.3804 108.298 60.5367C109.045 59.693 109.937 59.0508 110.974 58.6102C112.02 58.1696 113.188 57.9493 114.477 57.9493C116.205 57.9493 117.625 58.2352 118.737 58.8071C119.858 59.3789 120.717 60.1664 121.315 61.1695C121.913 62.1632 122.287 63.3069 122.436 64.6006H118.681C118.578 63.8881 118.373 63.2647 118.064 62.7303C117.756 62.1866 117.317 61.7647 116.747 61.4648C116.187 61.1554 115.458 61.0007 114.561 61.0007C113.805 61.0007 113.137 61.1507 112.558 61.4507C111.978 61.7507 111.493 62.1866 111.1 62.7585C110.708 63.3303 110.409 64.0381 110.204 64.8818C110.007 65.7255 109.909 66.6911 109.909 67.7786V69.1566C109.909 70.2535 110.021 71.2284 110.246 72.0815C110.47 72.9252 110.792 73.6377 111.212 74.2189C111.642 74.7908 112.17 75.2267 112.796 75.5267C113.431 75.8173 114.15 75.9626 114.954 75.9626C115.682 75.9626 116.285 75.9017 116.761 75.7798C117.247 75.6486 117.635 75.4939 117.924 75.3158C118.214 75.1377 118.438 74.9642 118.597 74.7955V70.9566H114.547V68.1301H122.45Z" fill="#F7931A"/>
<path d="M134.837 75.1048V63.5037H138.564V78.7188H135.061L134.837 75.1048ZM135.313 71.955L136.462 71.9268C136.462 72.9487 136.35 73.8908 136.126 74.7533C135.901 75.6158 135.551 76.3657 135.075 77.0032C134.608 77.6313 134.014 78.1235 133.295 78.4797C132.576 78.8266 131.726 79 130.745 79C129.998 79 129.316 78.8969 128.699 78.6906C128.083 78.475 127.55 78.1422 127.102 77.6922C126.663 77.2329 126.322 76.647 126.079 75.9345C125.836 75.2127 125.715 74.3455 125.715 73.333V63.5037H129.414V73.3612C129.414 73.8674 129.47 74.2893 129.582 74.6267C129.703 74.9642 129.867 75.2408 130.072 75.4564C130.287 75.6626 130.535 75.8126 130.815 75.9064C131.105 75.9907 131.413 76.0329 131.74 76.0329C132.637 76.0329 133.342 75.8548 133.856 75.4986C134.379 75.133 134.752 74.6455 134.977 74.0361C135.201 73.4174 135.313 72.7237 135.313 71.955Z" fill="#F7931A"/>
<path d="M145.766 63.5037V78.7188H142.053V63.5037H145.766ZM141.8 59.5242C141.8 58.9711 141.987 58.5118 142.361 58.1461C142.744 57.7805 143.258 57.5977 143.902 57.5977C144.547 57.5977 145.056 57.7805 145.43 58.1461C145.813 58.5118 146.004 58.9711 146.004 59.5242C146.004 60.0679 145.813 60.5226 145.43 60.8882C145.056 61.2538 144.547 61.4366 143.902 61.4366C143.258 61.4366 142.744 61.2538 142.361 60.8882C141.987 60.5226 141.8 60.0679 141.8 59.5242Z" fill="#F7931A"/>
<path d="M158.391 75.4845V57.1196H162.118V78.7188H158.755L158.391 75.4845ZM148.652 71.2941V70.9988C148.652 69.8363 148.783 68.7817 149.045 67.8348C149.316 66.8786 149.708 66.0583 150.222 65.374C150.735 64.6896 151.357 64.16 152.085 63.785C152.823 63.41 153.659 63.2225 154.593 63.2225C155.499 63.2225 156.289 63.4053 156.961 63.7709C157.643 64.1365 158.222 64.6568 158.699 65.3318C159.185 66.0068 159.572 66.8083 159.862 67.7364C160.151 68.6551 160.362 69.6676 160.492 70.7738V71.5753C160.362 72.6534 160.151 73.6424 159.862 74.5424C159.572 75.4423 159.185 76.2298 158.699 76.9048C158.222 77.5704 157.643 78.086 156.961 78.4516C156.279 78.8172 155.481 79 154.565 79C153.641 79 152.809 78.8078 152.071 78.4235C151.343 78.0391 150.721 77.5001 150.208 76.8063C149.703 76.1126 149.316 75.297 149.045 74.3596C148.783 73.4221 148.652 72.4003 148.652 71.2941ZM152.365 70.9988V71.2941C152.365 71.9503 152.421 72.5643 152.534 73.1362C152.646 73.708 152.828 74.2143 153.08 74.6549C153.332 75.0861 153.655 75.4236 154.047 75.6673C154.449 75.9111 154.934 76.0329 155.504 76.0329C156.233 76.0329 156.831 75.8736 157.298 75.5548C157.774 75.2267 158.143 74.7814 158.405 74.2189C158.666 73.6471 158.834 73.0049 158.909 72.2925V70.0847C158.872 69.5223 158.774 69.002 158.615 68.5239C158.465 68.0458 158.25 67.6333 157.97 67.2864C157.699 66.9395 157.363 66.6677 156.961 66.4708C156.56 66.2739 156.083 66.1755 155.532 66.1755C154.962 66.1755 154.477 66.3021 154.075 66.5552C153.673 66.7989 153.346 67.1411 153.094 67.5817C152.842 68.0223 152.655 68.5332 152.534 69.1145C152.421 69.6957 152.365 70.3238 152.365 70.9988Z" fill="#F7931A"/>
<path d="M172.276 79C171.127 79 170.095 78.8125 169.18 78.4375C168.264 78.0625 167.484 77.5422 166.84 76.8766C166.205 76.2017 165.714 75.4189 165.368 74.5283C165.032 73.6283 164.864 72.6628 164.864 71.6315V71.0691C164.864 69.8972 165.032 68.8332 165.368 67.877C165.705 66.9114 166.181 66.0818 166.798 65.388C167.414 64.6943 168.152 64.16 169.012 63.785C169.871 63.41 170.819 63.2225 171.856 63.2225C172.93 63.2225 173.878 63.4053 174.7 63.7709C175.522 64.1272 176.209 64.6334 176.76 65.2896C177.311 65.9458 177.727 66.7333 178.007 67.652C178.287 68.5614 178.428 69.5691 178.428 70.6753V72.2362H166.545V69.6769H174.785V69.3957C174.766 68.8051 174.654 68.2661 174.448 67.7786C174.243 67.2817 173.925 66.888 173.495 66.5974C173.066 66.2974 172.51 66.1474 171.828 66.1474C171.277 66.1474 170.796 66.2693 170.385 66.513C169.983 66.7474 169.647 67.0849 169.376 67.5255C169.114 67.9567 168.918 68.4723 168.787 69.0723C168.657 69.6722 168.591 70.3378 168.591 71.0691V71.6315C168.591 72.269 168.675 72.8596 168.843 73.4034C169.021 73.9471 169.278 74.4205 169.614 74.8236C169.96 75.2173 170.371 75.5267 170.847 75.7517C171.333 75.9673 171.884 76.0751 172.501 76.0751C173.276 76.0751 173.976 75.9251 174.602 75.6251C175.238 75.3158 175.789 74.8611 176.256 74.2611L178.119 76.2017C177.802 76.6704 177.372 77.1204 176.83 77.5516C176.298 77.9829 175.653 78.3344 174.897 78.6063C174.14 78.8688 173.267 79 172.276 79Z" fill="#F7931A"/>
</svg>
